Coordinates
nRows=10
nColumns=38

# SIMM Motion File Header:
name Coordinates
datacolumns 38
datarows 10
otherdata 1
range 1.49000000000000000000 1.49899999999999990000

Units are S.I. units (second, meters, Newtons, ...)
Angles are in degrees.

endheader
time	pelvis_tilt	pelvis_list	pelvis_rotation	pelvis_tx	pelvis_ty	pelvis_tz	hip_flexion_r	hip_adduction_r	hip_rotation_r	knee_angle_r	ankle_angle_r	subtalar_angle_r	mtp_angle_r	hip_flexion_l	hip_adduction_l	hip_rotation_l	knee_angle_l	ankle_angle_l	subtalar_angle_l	mtp_angle_l	lumbar_extension	lumbar_bending	lumbar_rotation	arm_flex_r	arm_add_r	arm_rot_r	elbow_flex_r	pro_sup_r	wrist_flex_r	wrist_dev_r	arm_flex_l	arm_add_l	arm_rot_l	elbow_flex_l	pro_sup_l	wrist_flex_l	wrist_dev_l
      1.49000000000000000000	     -7.41977189563741480000	     -1.72580429073257260000	      1.85803856250018830000	      0.79795378669174521000	      1.02836656279150750000	     -0.32095930181313442000	     30.06496054866531500000	      3.61131689783169390000	     -6.81846508615850320000	     -8.46055754463461440000	    -17.07001719355540500000	      0.00000000000000000000	      0.00000000000000000000	    -10.17384683171996900000	     -2.09734755416759060000	     -6.49086051485928820000	    -66.22738213377105900000	    -22.63260550648220000000	      0.00000000000000000000	      0.00000000000000000000	     -1.13460374075949530000	      3.68846421786111240000	    -15.97119372802931600000	    -36.82515899145890600000	    -27.51165839271657600000	      0.38832741616727806000	     99.19106134712785700000	     69.61275336898869200000	      0.00000000000000000000	      0.00000000000000000000	     -7.98325437707119350000	    -33.03570832357675600000	     17.84690019386150800000	    122.77418919983424000000	     79.59047113501871700000	      0.00000000000000000000	      0.00000000000000000000
      1.49099999999999990000	     -7.39597960467322670000	     -1.73008479268366380000	      1.80890864456561770000	      0.79803744753548089000	      1.02780779583213480000	     -0.32087246602441927000	     29.98840984825712000000	      3.64712782571108600000	     -6.94689456958450610000	     -8.42615077770534170000	    -17.18029539889109700000	     -0.00000000000000000110	     -0.00000000000000000106	    -10.06388248150624100000	     -2.09841837781539330000	     -6.48891905375082430000	    -66.80694534915454600000	    -22.45656282889979500000	     -0.00000000000000000148	     -0.00000000000000000062	     -1.14275756787203610000	      3.73043573432823730000	    -15.86187040824904500000	    -36.72259098566983200000	    -27.50791642767803700000	      0.37088933426764292000	     99.13130531283738400000	     69.54327833214296100000	     -0.00000000000000000027	      0.00000000000000000028	     -8.05104611522700430000	    -33.02578847465265000000	     17.90225533386678700000	    122.53450827342303000000	     79.48390107828555500000	      0.00000000000000000033	     -0.00000000000000000139
      1.49200000000000000000	     -7.37271503606383050000	     -1.73549539818401270000	      1.75943545238372610000	      0.79811707514229102000	      1.02723962468230830000	     -0.32078396427583561000	     29.91622699598651600000	      3.68433507974582360000	     -7.06867001011715690000	     -8.40812583322678900000	    -17.28274250299712700000	     -0.00000000000000000631	      0.00000000000000000207	     -9.95083831916063490000	     -2.10094853207355300000	     -6.48808607283624460000	    -67.38810255340729300000	    -22.27749654651195500000	     -0.00000000000000000566	     -0.00000000000000000315	     -1.15074988063287820000	      3.77369235784005010000	    -15.75181899703254400000	    -36.61722818232189500000	    -27.50438942934767900000	      0.35533440988421694000	     99.06999819429522300000	     69.47365453057467700000	     -0.00000000000000000058	      0.00000000000000000404	     -8.11886010248393930000	    -33.01575852810830000000	     17.95739395298438600000	    122.29268778887442000000	     79.37901117469169800000	      0.00000000000000000203	     -0.00000000000000000460
      1.49299999999999990000	     -7.34994611891193550000	     -1.74207575508756670000	      1.70959286427505000000	      0.79819261960553944000	      1.02666221334323930000	     -0.32069374965913905000	     29.84836211453699300000	      3.72293505510900100000	     -7.18439724688524620000	     -8.40639596922487970000	    -17.38012347538082400000	     -0.00000000000000001157	      0.00000000000000000889	     -9.83475085344668190000	     -2.10501243706690740000	     -6.48842691722011190000	    -67.97081392925646500000	    -22.09551968013992300000	     -0.00000000000000001128	     -0.00000000000000000824	     -1.15863777563547110000	      3.81828182158890430000	    -15.64099905370117900000	    -36.50910619605306100000	    -27.50106645244401800000	      0.34162014270306079000	     99.00716240063904600000	     69.40392526804959100000	     -0.00000000000000000065	      0.00000000000000000816	     -8.18664611773228930000	    -33.00561423282236700000	     18.01233054679975600000	    122.04872753522882000000	     79.27599248981589100000	      0.00000000000000000359	     -0.00000000000000000848
      1.49400000000000000000	     -7.32759203361379980000	     -1.74985931050850230000	      1.65939558135254540000	      0.79826414246067945000	      1.02607569492462350000	     -0.32060175788550366000	     29.78467190384503400000	      3.76298528408004840000	     -7.29357434992908170000	     -8.42092396856073220000	    -17.47118819838867100000	     -0.00000000000000000933	      0.00000000000000001593	     -9.71572213122496820000	     -2.11070438299345090000	     -6.48998775607372380000	    -68.55503093832796000000	    -21.91074123396206000000	     -0.00000000000000001918	     -0.00000000000000000562	     -1.16652036649783250000	      3.86423651388757250000	    -15.52940286653702500000	    -36.39829633448169900000	    -27.49792141486299000000	      0.32968739211884385000	     98.94285872376212900000	     69.33414381634914000000	     -0.00000000000000000096	      0.00000000000000001132	     -8.25436070675647750000	    -32.99538691036247000000	     18.06708247276005300000	    121.80266616112189000000	     79.17504248366832100000	      0.00000000000000000430	     -0.00000000000000001098
      1.49499999999999990000	     -7.30557897958115190000	     -1.75883863793614340000	      1.60877542962457510000	      0.79833168078521866000	      1.02548020074421830000	     -0.32050782034278663000	     29.72505257188724700000	      3.80453106146343960000	     -7.39582400344023580000	     -8.45171165125893960000	    -17.55523060797899500000	     -0.00000000000000001295	      0.00000000000000001909	     -9.59386912929116060000	     -2.11805504178023310000	     -6.49288281662954510000	    -69.14067201274383500000	    -21.72328888026356700000	     -0.00000000000000002633	     -0.00000000000000000806	     -1.17449904040666490000	      3.91154658116837610000	    -15.41693801878421300000	    -36.28486635475526600000	    -27.49492732919804200000	      0.31947493395563564000	     98.87714747019761300000	     69.26436297601060200000	     -0.00000000000000000116	      0.00000000000000001497	     -8.32195953590669110000	    -32.98510967559512600000	     18.12167164057244800000	    121.55454279934041000000	     79.07634730481081000000	      0.00000000000000000478	     -0.00000000000000001221
      1.49600000000000000000	     -7.28382622731456130000	     -1.76899597606341090000	      1.55772744867915700000	      0.79839525819741874000	      1.02487587644017150000	     -0.32041187416254902000	     29.66938506000173000000	      3.84757870025454760000	     -7.49081728628809800000	     -8.49875243405528380000	    -17.63137183901515600000	     -0.00000000000000002495	      0.00000000000000001970	     -9.46929700481622480000	     -2.12709167892309830000	     -6.49715603444629330000	    -69.72767313685703500000	    -21.53329383158228100000	     -0.00000000000000003000	     -0.00000000000000001356	     -1.18268099458435480000	      3.96019030985742400000	    -15.30357226197286600000	    -36.16887887474812400000	    -27.49205041131589400000	      0.31092184471056128000	     98.81008544888952400000	     69.19463795186754900000	     -0.00000000000000000135	      0.00000000000000001905	     -8.38939788269370190000	    -32.97482378417584000000	     18.17612388782819000000	    121.30439918616899000000	     78.98007823546177500000	      0.00000000000000000423	     -0.00000000000000001276
      1.49699999999999990000	     -7.26224783463811720000	     -1.78030912602844540000	      1.50628435613176940000	      0.79845488471582371000	      1.02426288169178760000	     -0.32031392533537723000	     29.61754247625289000000	      3.89211091520945770000	     -7.57830951913501320000	     -8.56203390359666370000	    -17.69873779587866700000	     -0.00000000000000004008	      0.00000000000000001297	     -9.34210459524325640000	     -2.13784036327296080000	     -6.50280840889817120000	    -70.31598080102607200000	    -21.34089016674976200000	     -0.00000000000000003138	     -0.00000000000000001920	     -1.19117874830400750000	      4.01014183739946970000	    -15.18930826441324400000	    -36.05039163701618300000	    -27.48925417503823700000	      0.30396665687388830000	     98.74172737914804500000	     69.12502436129945200000	     -0.00000000000000000147	      0.00000000000000002476	     -8.45663014568461690000	    -32.96457422066317400000	     18.23046920243117300000	    121.05227784799428000000	     78.88639354087389700000	      0.00000000000000000457	     -0.00000000000000001349
      1.49800000000000000000	     -7.24075275282332690000	     -1.79275345015115840000	      1.45450335269943400000	      0.79851055964067874000	      1.02364138797911110000	     -0.32021402736820204000	     29.56939208970778300000	      3.93809620458365250000	     -7.65811788430127830000	     -8.64154036764754880000	    -17.75642811887009400000	     -0.00000000000000005319	      0.00000000000000000198	     -9.21238870023954170000	     -2.15032633713330320000	     -6.50981203997659020000	    -70.90554776871387300000	    -21.14621402087851400000	     -0.00000000000000003300	     -0.00000000000000002407	     -1.20011047689903920000	      4.06137365619092080000	    -15.07417049269486300000	    -35.92945832380390700000	    -27.48650122120008600000	      0.29854697295605459000	     98.67212734932225300000	     69.05557725682723500000	     -0.00000000000000000126	      0.00000000000000002930	     -8.52361004771783290000	    -32.95440840298903100000	     18.28474166170092700000	    120.79822212378897000000	     78.79543865628969000000	      0.00000000000000000430	     -0.00000000000000001508
      1.49899999999999990000	     -7.21924537242682000000	     -1.80630353244844580000	      1.40245597228217860000	      0.79856227223752962000	      1.02301157758256030000	     -0.32011226536395643000	     29.52479769090830100000	      3.98549535926912400000	     -7.73011738597362810000	     -8.73725455049077300000	    -17.80352864762876700000	     -0.00000000000000007255	     -0.00000000000000000727	     -9.08024658638830750000	     -2.16457430987885720000	     -6.51812062350190400000	    -71.49633016049905600000	    -20.94940313958323600000	     -0.00000000000000003314	     -0.00000000000000003401	     -1.20959997822943600000	      4.11385869072587070000	    -14.95819523204923700000	    -35.80612893137599400000	    -27.48375461242502400000	      0.29459935708263796000	     98.60133957226425100000	     68.98635039326846700000	     -0.00000000000000000153	      0.00000000000000003239	     -8.59029048021957210000	    -32.94437498100922600000	     18.33897936839882400000	    120.54227577332388000000	     78.70734649920282800000	      0.00000000000000000356	     -0.00000000000000001573
